<svg version="1.2" xmlns="http://www.w3.org/2000/svg" viewBox="0 0 512 512" width="512" height="512"><style>.a{fill:#fff}</style><path fill-rule="evenodd" class="a" d="m104 44.5c0 12.8-10.2 23-23 23-12.8 0-23-10.2-23-23 0-12.8 10.2-23 23-23 12.8 0 23 10.2 23 23zm350 0c0 12.8-10.2 23-23 23-12.8 0-23-10.2-23-23 0-12.8 10.2-23 23-23 12.8 0 23 10.2 23 23zm-315.3 74.4l-15 10-28.6-45.9q2.1-0.8 4.1-1.8 2.1-1 4-2.3 1.9-1.2 3.6-2.6 1.8-1.5 3.4-3.1zm266.4-42.6q1.8 1.4 3.7 2.7 1.9 1.2 3.9 2.2 2.1 1 4.2 1.8l-28.7 45.9-15-10 28.6-45.6q1.6 1.6 3.3 3zm-232.6 64.5q-1.8 0.7-3.6 1.5c-16.2 6.9-30.4 16.4-39.6 28.9l-6.6-20 36.1-24.1zm216.8 10.4l-6.7 20c-9.2-12.4-23.3-22-39.6-28.9q-1.8-0.8-3.6-1.5l13.7-13.7zm-53.3 7.6c21.9 9.4 35.9 22.4 39.2 38.4l30.5 229.4h-299.4l30.6-229.4c3.2-16 17.3-29 39.1-38.4 22-9.3 51-14.2 80-14.2 29 0 58 4.9 80 14.2zm-201 100.8c0 31.3 25.7 57 57 57 31.4 0 57-25.7 57-57 0-31.4-25.6-57-57-57-31.3 0-57 25.6-57 57zm128 0c0 31.3 25.7 57 57 57 31.4 0 57-25.7 57-57 0-31.4-25.6-57-57-57-31.3 0-57 25.6-57 57zm-30 0c0 22.6-18.8 40.9-41.5 40.9-22.8 0-41.6-18.3-41.6-40.9 0-22.7 18.8-41 41.6-41 22.7 0 41.5 18.3 41.5 41zm128 0c0 22.6-18.8 40.9-41.5 40.9-22.8 0-41.6-18.3-41.6-40.9 0-22.7 18.8-41 41.6-41 22.7 0 41.5 18.3 41.5 41zm-193.1 0c0 12.7 10.4 22.9 23.6 22.9 13.2 0 23.5-10.2 23.5-22.9 0-12.8-10.3-23-23.5-23-13.2 0-23.6 10.2-23.6 23zm128 0c0 12.7 10.4 22.9 23.6 22.9 13.2 0 23.5-10.2 23.5-22.9 0-12.8-10.3-23-23.5-23-13.2 0-23.6 10.2-23.6 23zm-87.9 89h96v-18h-96zm-16 32h128v-18h-128zm-16 32h160v-18h-160zm-57 32v46h-46v-46zm64 0v46h-46v-46zm64 0v46h-46v-46zm64 0v46h-46v-46zm64 0v46h-46v-46zm64 0v46h-46v-46z"/></svg>