<svg version="1.2" xmlns="http://www.w3.org/2000/svg" viewBox="0 0 512 512" width="512" height="512"><style>.a{fill:#fff}</style><path fill-rule="evenodd" class="a" d="m281 87.4c25.8 3.7 51.1-19.1 63.5-53 24.3 9.6 47.1 22.7 66.6 39.1-23.9 27.1-32.4 60-16.7 81 15.6 20.8 49.7 22.8 82.3 7.7 10.1 23.2 16.5 47.9 18.9 73.8-35.9 2.4-64.9 20.3-68.6 46.2-3.7 25.8 19.1 51.1 52.9 63.5-9.4 24-22.7 46.2-38.8 65.5-14.4-12.5-30.5-20.6-45.6-22.7-13-1.9-26-0.1-35.6 7.1-21.1 15.8-22.6 50.4-6.8 83.4-23.4 10.2-48.8 16.4-74.9 18.8-2.4-35.9-20.3-64.9-46.1-68.6-25.8-3.7-51.2 19.1-63.5 52.9-24.4-9.6-47.1-22.7-66.6-39 24.4-27.3 32.6-60.9 16.8-82-7.2-9.6-18.1-14.8-31.2-16.7-15.3-2.1-33.3 0.8-51.1 9-10-23.1-16.6-48.1-18.9-73.9 35.9-2.4 64.9-20.3 68.6-46.1 3.7-25.8-19.1-51.2-52.9-63.5 9.5-24.3 22.6-46.2 38.9-65.6 27 23.6 60.2 31.3 81.1 15.7 20.9-15.7 22.1-49.7 6.7-82.4 23.3-10.3 48.8-16.5 74.9-18.8 2.3 35.9 20.2 64.9 46.1 68.6zm-168.8 170.9c0 79.6 64.7 144.4 144.3 144.4 79.7 0 144.4-64.8 144.4-144.4 0-79.6-64.7-144.4-144.4-144.4-79.6 0-144.3 64.8-144.3 144.4zm270 0c0 69.5-56.1 125.7-125.7 125.7-69.5 0-125.7-56.2-125.7-125.7 0-69.5 56.2-125.7 125.7-125.7 69.6 0 125.7 56.2 125.7 125.7zm-236.3 0c0 61.1 49.6 110.7 110.7 110.7 61.1 0 110.6-49.6 110.6-110.7 0-61.1-49.5-110.6-110.6-110.6-61.1 0-110.7 49.5-110.7 110.6z"/></svg>