<svg version="1.2" xmlns="http://www.w3.org/2000/svg" viewBox="0 0 512 512" width="512" height="512"><style>.a{fill:#fff}</style><path fill-rule="evenodd" class="a" d="m494 267.8l-3.6 4.5-79-133 82.6-77.9c0 0 0 206.4 0 206.4zm-380.9-112.8l-52.7 133.2c-5.5 0.5-15.2 1.3-27.1 1.2-5.4-0.1-10.8-0.4-15.3-1v-225.9zm294.1 12.4c0 0 60.9 102.5 60.9 102.5l-45.2 30-115.4-83.3-7.4-10.8-7.4 5.1c-13 9-31.8 17-50.3 16.8-15.8-0.2-31.6-5.8-45.8-22.9 34.2-13.2 68.4-27.3 100.7-37.1 25.7 6.6 47.7 15 68 25.9 2.7-1.7 2.8-1.7 5.6-3.5 5.6-3.4 7-4.3 11.9-7.4h-0.2l10.6-6.5c1.6-0.9 6.8-4.2 6.9-4.3zm-188.6 9.6c-13.2 5.2-26.3 10.4-39.3 15.4-1.3 0.5-2.4 1.2-3.4 2.2-0.9 1-1.6 2.1-2 3.4-0.4 1.3-0.5 2.6-0.4 4 0.2 1.3 0.7 2.6 1.4 3.7 18.6 28.5 43.8 39.8 67.4 40.1 20.1 0.2 38.9-6.8 53.5-15.4l110.5 79.7c0.6 6.6-0.5 11.1-2.6 14.1-2.2 3-6 5.5-12.5 7.1l-92.4-65.6-7.4-5.2-10.4 14.7 7.4 5.2 92.4 65.5c0.6 6.7-0.5 11.1-2.7 14.1-2.1 3-6 5.5-12.4 7.1l-80.4-57.2-7.3-5.2-6.7 9.3-5.2 7.3 7.4 5.2 71.2 51c0.6 6.7-0.5 11.1-2.6 14.2-2.1 3-6 5.4-12.5 7l-59.4-42.3-7.3-5.2-2.8 3.9-5.5 7.7-2 2.9q-1-0.4-1.9-0.7l-0.2-3.1c-0.8-12-4.6-22.4-12.4-29.3-4.7-4.2-10.5-6.7-16.9-7.9l-0.1-1.1c-0.7-12-4.5-22.4-12.4-29.3-7.8-6.9-18.6-9.4-30.6-8.7l-2.3 0.2c-1.9-6.9-5.3-12.9-10.4-17.3-6.8-6.1-15.9-8.7-26.2-8.8q-2.1 0-4.4 0.1l-3.7 0.3-2.5 2.8-30.8 34.9-16.6-12.8 45.3-114.8c0 0 92.1 6.8 92.1 6.8zm-65.1 105c2.9 2.5 5 6.7 5.9 13.4l-47.6 53.9c-6.8 0-11.2-1.6-14-4.1-2.9-2.5-5-6.7-5.9-13.5l47.5-53.9c6.8 0.1 11.3 1.7 14.1 4.2zm43.3 25.8c2.9 2.5 5 6.7 5.9 13.4l-53.7 60.9c-6.8-0.1-11.2-1.6-14.1-4.2-2.8-2.5-4.9-6.7-5.9-13.4l53.7-60.9c6.9 0.1 11.3 1.7 14.1 4.2zm29.4 38.3c2.8 2.5 4.9 6.7 5.9 13.4l-47.6 53.9c-6.8-0.1-11.2-1.6-14.1-4.1-2.8-2.5-4.9-6.7-5.9-13.5l47.6-53.9c6.8 0.1 11.2 1.6 14.1 4.2zm24.7 39.1c2.8 2.5 4.9 6.7 5.8 13.5l-38.7 44.3c-6.8-0.1-11.3-1.7-14.1-4.2-2.9-2.5-5-6.7-5.9-13.5l38.8-44.3c6.8 0.1 11.2 1.7 14.1 4.2zm58 26.8c0.6 6.7-0.5 11.1-2.6 14.1-2.2 3-6 5.5-12.5 7.1l-26.7-19 8.3-9.5-0.3-3.7c-0.3-5.4-1.3-10.6-3-15.2 0 0 36.8 26.2 36.8 26.2z"/></svg>