<svg version="1.2" xmlns="http://www.w3.org/2000/svg" viewBox="0 0 512 512" width="512" height="512"><style>.a{fill:#fff}</style><path fill-rule="evenodd" class="a" d="m444.2 65.8c60.8 60.9 60.8 159.9 0 220.8-58.7 58.7-152.8 60.8-214 6.4l-15.8 15.8-13.2-13.2 15.8-15.8c-54.4-61.2-52.3-155.3 6.4-214 30.4-30.4 70.4-45.6 110.4-45.6 40 0 79.9 15.2 110.4 45.6zm-207.6 13.3c-51.5 51.5-53.7 133.4-6.4 187.5l0.2-0.3c2.1 2.4 4.1 4.7 6.3 6.9 2.3 2.2 4.6 4.3 7 6.4l-0.3 0.2c54.1 47.2 136 45.1 187.5-6.4 53.8-53.7 53.8-140.6 0-194.3-26.8-26.9-62-40.4-97.1-40.4-35.2 0-70.3 13.5-97.2 40.4zm181 13.2c27 27 38.2 63.7 33.8 98.8-4.3-46.6-39.1-84.3-84.3-92.9q4.1 2.7 7.7 6.3c24.6 24.6 20.3 68.7-9.6 98.6-29.9 29.9-74 34.2-98.6 9.6-14-14-18.6-34.4-14.5-54.9-5.9 13.1-9.2 27.7-9.2 43 0 33.8 16.1 63.8 41 82.9-12.3-5.7-23.8-13.6-33.9-23.8-46.4-46.3-46.4-121.2 0-167.6 23.1-23.1 53.5-34.7 83.8-34.7 30.3 0 60.6 11.6 83.8 34.7zm-206.1 240l-134.8 134.8-34.6-34.6 134.8-134.8c0 0 34.6 34.6 34.6 34.6zm-158.3 137.7l-16 16-13.2-13.2 16-16c0 0 13.2 13.2 13.2 13.2z"/></svg>