<svg version="1.2" xmlns="http://www.w3.org/2000/svg" viewBox="0 0 512 512" width="512" height="512"><style>.a{fill:#fff}</style><path class="a" d="m134.9 113.5c-7.5 0-15.2 2.9-22.4 8.6-9.7 7.6-18.1 20-22.2 35.3-4.1 15.4-3 30.3 1.6 41.7 4.5 11.4 12.2 19 21.9 21.6 9.6 2.6 20.1-0.2 29.7-7.7 9.7-7.6 18.1-20.1 22.2-35.4 4.1-15.3 3-30.2-1.6-41.6-4.5-11.4-12.2-19-21.9-21.6q-3.6-1-7.3-0.9zm242.2 0q-3.7-0.1-7.3 0.9c-9.7 2.6-17.4 10.2-21.9 21.6-4.6 11.4-5.7 26.3-1.6 41.6 4.1 15.3 12.5 27.8 22.2 35.4 9.6 7.5 20.1 10.3 29.7 7.7 9.7-2.6 17.4-10.2 21.9-21.6 4.6-11.4 5.7-26.3 1.6-41.7-4.1-15.3-12.5-27.7-22.2-35.3-7.2-5.7-14.9-8.6-22.4-8.6zm-288.7 112.5c-10.2 2.2-18.1 6.5-24.8 12.7-9.9 9-17.3 22.5-23.1 39.7-10.6 31.8-15 75.3-22 120.1h132.5c-0.1-44.9-0.5-88.9-6.8-121.2-3.2-16.5-8-29.8-14.1-38.6-6.9 1.3-14 1.2-21-0.6-8-2.2-15-6.4-20.7-12.1zm335.2 0c-5.7 5.7-12.7 9.9-20.7 12.1-7 1.8-14.1 1.9-21 0.6-6.1 8.8-10.9 22.1-14.1 38.6-6.3 32.3-6.7 76.3-6.8 121.2h132.5c-7-44.8-11.4-88.3-22-120.1-5.8-17.2-13.2-30.7-23.1-39.7-6.7-6.2-14.6-10.5-24.8-12.7zm-240.6 69.5v23h18v-23zm80 0v23h18v-23zm-94.9 41q0.3 7 0.5 14h174.8q0.2-7 0.5-14c0 0-175.8 0-175.8 0z"/></svg>