<svg version="1.2" xmlns="http://www.w3.org/2000/svg" viewBox="0 0 5669 5615" width="5669" height="5615"><style>.a{fill:#fff}.b{fill:#f24040}</style><path class="a" d="m108.8 299.7c-5.4 0.3-5.8 0.5-6.4 3.1-0.4 1.5-0.4 4.1-0.1 5.7 0.2 1.6 1.4 5.5 2.6 8.5 1.2 3 3.5 7.8 5.3 10.5 1.7 2.8 12.7 23.7 24.3 46.5 11.7 22.8 23.4 45.1 26 49.5 2.6 4.4 8.5 15.4 13 24.5 4.5 9.1 12.1 23.9 16.9 33 4.9 9.1 10.3 19 12.1 22 1.8 3 8.7 16.3 15.4 29.5 6.7 13.2 16.2 31.4 21.1 40.5 4.9 9.1 13.7 25.7 19.5 37 5.7 11.3 12.8 24.5 15.6 29.5 2.8 5 14.2 26.5 25.3 48 11.2 21.5 23.2 44.4 26.8 51 3.6 6.6 13.9 26.2 22.8 43.5 9 17.3 18 34.2 20 37.5 2.1 3.3 11.5 21.3 21 40 9.5 18.7 19.7 38 22.5 43 2.9 5 9.8 18.2 15.5 29.5 5.6 11.3 11.5 22.3 13 24.5 1.5 2.2 10.7 19.8 20.5 39 9.8 19.3 21 40.8 25 48 3.9 7.2 11.4 21.1 16.5 31 5.1 9.9 14.2 27.5 20.3 39 6.1 11.5 12.2 22.8 13.7 25 1.5 2.2 11.1 20.7 21.5 41 10.3 20.3 20 38.8 21.5 41 1.5 2.2 7.5 13.5 13.2 25 5.8 11.5 11.6 22.8 13 25 1.3 2.2 7.8 14.1 14.3 26.5 6.6 12.4 15.5 29.9 19.8 39 4.4 9.1 9 17.8 10.3 19.5 1.2 1.7 12.1 21.9 24.2 45 12 23.1 24.5 46.7 27.7 52.5 3.1 5.8 12.7 24.2 21.3 41 8.5 16.8 18.5 35.7 22.2 42 3.7 6.3 14 25.9 23 43.5 8.9 17.6 17.8 34.4 19.6 37.3 1.9 2.8 8.2 14.8 14 26.5 5.8 11.6 12.5 24.4 14.9 28.2 2.3 3.8 12.2 22.5 22 41.5 9.8 19 20.3 39 23.3 44.5 3 5.5 13.3 25.3 23 44 9.6 18.7 19 36.7 21 40 2 3.3 9.1 16.6 15.7 29.5 6.7 12.9 16.5 31.6 21.7 41.5 5.2 9.9 11.6 21.8 14.3 26.5 2.6 4.7 7.8 14.8 11.4 22.5 3.7 7.7 9 17.8 11.8 22.5 2.8 4.7 9.3 16.6 14.6 26.5 5.2 9.9 13.5 25.9 18.4 35.5 4.9 9.6 10.1 19.3 11.5 21.5 1.4 2.2 4.9 8.7 7.8 14.5 2.9 5.8 11.7 23.1 19.7 38.5 8 15.4 16.6 31.6 19.2 36 2.5 4.4 9.7 17.9 16 30 6.3 12.1 16 30.8 21.6 41.5 5.6 10.7 15.8 30.3 22.6 43.6 6.8 13.2 12.9 24.7 13.6 25.5 0.6 0.8 4 7 7.6 13.9 3.5 6.9 10.5 20.4 15.7 30 5.1 9.6 17.5 33 27.5 52 10.1 19 22.4 42.6 27.5 52.5 5.1 9.9 11.4 21.8 14.1 26.5 2.6 4.7 9.1 16.8 14.5 27 5.3 10.2 15.3 29.3 22.2 42.5 6.9 13.2 17.1 32.8 22.7 43.5 5.6 10.7 14.3 27.2 19.2 36.5 4.9 9.3 10.8 20.2 13 24 2.2 3.8 8.4 15.6 13.8 26 5.4 10.4 19.9 38.3 32.3 62 12.4 23.7 25.4 48.4 29.1 55 3.6 6.6 8.8 16.5 11.4 22 2.7 5.5 6.4 12.4 8.3 15.3 1.9 2.8 8 14.5 13.7 26 5.6 11.4 11.2 22 12.4 23.7 1.1 1.7 6.3 11.6 11.5 22 5.1 10.4 10.3 20.3 11.5 22 1.1 1.7 5.3 9.5 9.3 17.5 4 8 9.1 17.7 11.4 21.5 2.4 3.8 9.8 17.8 16.6 31 6.7 13.2 19.5 37.7 28.3 54.5 8.7 16.8 22.9 43.8 31.5 60 8.5 16.2 15.8 29.9 16.3 30.5 0.4 0.6 6.9 12.9 14.5 27.5 7.5 14.6 19.1 36.8 25.7 49.5 6.6 12.7 16.1 30.9 21.1 40.5 5 9.7 10 18.9 11.2 20.5 1.1 1.7 6.3 11.1 11.4 21 5.1 9.9 14.7 28.3 21.3 41 6.6 12.7 17 32.7 23.1 44.5 6.1 11.8 12.7 24 14.5 27 1.8 3 6.7 12.3 10.8 20.5 4.2 8.3 10.4 19.9 13.8 26 3.4 6.1 10.1 18.7 14.8 28 4.8 9.3 13.9 26.9 20.3 39 6.4 12.1 16.1 30.8 21.6 41.5 5.6 10.7 11.6 22 13.3 25 1.8 3 6.7 12 10.8 20 4.1 8 13.2 25.8 20.3 39.5 7.1 13.8 13.9 26.3 15 28 1.2 1.7 6.5 11.6 11.8 22 5.3 10.4 11.1 21.7 13 25 1.8 3.3 9.8 18.4 17.8 33.5 8 15.1 21.4 40.8 29.8 57 8.4 16.2 17.2 32.7 19.5 36.5 2.4 3.8 8.9 16 14.4 27 5.6 11 14.6 28.3 19.9 38.5 9.3 17.7 9.8 18.4 13.2 19.1 1.9 0.4 4.6 0.4 5.9 0 1.3-0.3 2.7-1.3 3.2-2.1 0.4-0.8 4.4-9.2 8.9-18.5 4.5-9.3 10.5-21.1 13.4-26 2.9-4.9 10.2-18.2 16.1-29.5 6-11.3 15.7-29.7 21.5-41 5.9-11.3 17.1-32.9 25-48 7.9-15.1 17.3-33.3 20.9-40.3 3.6-7.1 7.3-13.7 8.1-14.6 0.8-0.9 5.9-10.5 11.2-21.4 5.4-10.8 11-21.6 12.5-23.9 1.5-2.4 6.4-11.7 10.8-20.8 4.5-9.1 9.8-19.1 11.8-22.2 2-3.2 6.7-11.8 10.3-19 3.7-7.3 9.5-18.5 12.9-24.8 3.4-6.3 9.5-17.8 13.5-25.5 4-7.7 12-23 17.8-34 5.7-11 15.3-29.2 21.2-40.5 5.9-11.3 17.3-33.2 25.3-48.7 8.1-15.6 15.8-30 17-32 1.3-2.1 10.6-19.8 20.7-39.3 10.1-19.5 20.6-39.6 23.3-44.5 2.8-4.9 10.4-19.1 16.8-31.5 6.4-12.4 16.3-31.5 22-42.5 5.8-11 11.4-21.3 12.6-23 1.2-1.7 6.5-12 12-23 5.4-11 10.8-21.3 11.9-23 1.2-1.7 9-16.5 17.4-33 8.5-16.5 17.4-33.6 19.8-38 2.5-4.4 8.9-16.3 14.2-26.5 5.3-10.2 15.4-29.5 22.5-43 7-13.5 18.5-35.3 25.5-48.5 7-13.2 20.1-37.9 29-55 9-17.1 21.6-41.1 28-53.5 6.5-12.4 16.2-30.8 21.5-41 5.4-10.2 15.1-28.6 21.5-41 6.4-12.4 15-28.6 19-36 4-7.4 7.9-14.6 8.6-16 0.8-1.4 1.4-2.8 1.4-3.2 0-0.5 1.7-3.4 3.7-6.5 2-3.2 7-12.8 11.1-21.3 4.1-8.5 9.7-19.3 12.5-24 2.8-4.7 10.6-20 17.3-34 6.7-14 15.8-35.4 20.4-47.5 4.5-12.1 8.8-23.1 9.5-24.5 0.7-1.4 3.1-8.6 5.3-16 2.2-7.4 5.7-19.3 7.6-26.5 2-7.2 5-19.5 6.6-27.5 1.7-8 3.7-16.7 4.5-19.5 0.8-2.7 2.3-11.1 3.4-18.5 1.1-7.4 2.7-19.6 3.5-27 0.9-7.7 1.8-28.9 2.2-49 0.3-20.9 0.2-45.8-0.5-60.5-0.6-13.7-1.9-31.5-3-39.5-1.1-8-2.7-18.8-3.5-24-0.9-5.2-2.2-12-3-15-0.8-3-3.1-13.2-5.1-22.5-2-9.3-6.1-25.4-9.1-35.7-3-10.4-6.6-21.6-8-25-1.4-3.5-5.2-13.5-8.5-22.3-3.3-8.8-8.1-20.5-10.6-26-2.5-5.5-8.3-17.9-13-27.5-4.7-9.6-10.3-20.4-12.3-24-2.1-3.6-8-13.8-13.1-22.8-5.2-8.9-10.9-18.1-12.7-20.5-1.8-2.3-7.3-10.5-12.4-18.2-5-7.7-12.7-18-17.1-23-4.3-5-8.7-10.6-9.7-12.5-1-1.9-6.5-8.4-12.2-14.3l-10.3-10.8c-7.6 0.5-9.1 1.2-9.9 2.6-0.6 1.1-2.7 4.3-4.7 7-2.1 2.8-6.5 11.1-10 18.5-3.5 7.4-8.1 16.7-10.2 20.5-2.2 3.8-10.5 19.4-18.5 34.5-8 15.1-18 34.3-22.2 42.5-4.3 8.3-12.5 24-18.4 35-5.8 11-14.6 27.6-19.4 36.8-4.8 9.3-12.2 23.2-16.5 31-4.3 7.8-11.6 21.6-16.3 30.7-4.6 9.1-9 17.6-9.9 19-0.8 1.4-6.5 12.2-12.7 24-6.1 11.8-16 30.8-21.9 42.3-6 11.4-15.8 30-21.7 41.5-6 11.4-13.1 24.8-15.9 29.7-2.8 4.9-11.6 21.6-19.5 37-8 15.4-17 32.5-20 38-3 5.5-9.8 18.3-15 28.5-5.2 10.2-16.8 32.2-25.8 49-8.9 16.8-25 47.4-35.7 68-10.7 20.6-20.1 38.2-20.8 39-0.7 0.8-4.9 8.7-9.3 17.5-4.4 8.8-10.9 21.2-14.5 27.5-3.6 6.3-7.2 12.4-8 13.5-1.5 2-2.8 2-121.3 2.3l-119.9 0.2c-1.2-673.1-1.5-952.8-1.5-1055.8v-187.2c-3.8-5.8-5.3-9.3-5.8-11.5-0.6-2.2-1.3-7.2-1.7-11-0.5-5.2-1.4-8.2-3.5-11.5-1.6-2.5-17-32.8-34.3-67.5-17.2-34.7-32.1-64.3-33-66-0.8-1.7-3.5-7.3-5.9-12.5-2.3-5.2-35.2-71.4-72.9-147-37.7-75.6-70.1-140.9-71.9-145-1.8-4.1-5.2-10.9-7.6-15-2.4-4.1-8-15.4-12.5-25-4.5-9.6-28.5-58.2-53.3-108-24.8-49.8-46.9-94.1-49.1-98.6-2.2-4.4-8-16.1-12.8-26-4.9-9.8-10.3-20.8-12.2-24.4-1.9-3.6-5.1-10.1-7.2-14.5-2-4.4-20.8-42.4-41.8-84.5-20.9-42.1-44.5-89.8-52.4-106-8-16.2-28.7-58.2-46-93.2-17.4-35-33.2-67-35.1-71l-3.5-7.3c-986.6-0.1-1275.6 0-1278.8 0.2zm4164.3 0.3c-3.6 0.5-8.1 1.3-10 1.9-3.3 1.1-4.1 2.3-15.7 25.4-6.7 13.3-14.7 29.6-17.7 36.2-3 6.6-29.1 59.2-58 117-29 57.7-59.3 119-67.5 136-8.2 17-39.9 81-70.4 142-30.5 61-58.5 117.5-62.1 125.5-3.7 8-8.7 18.1-11.1 22.5-2.5 4.4-5.8 10.7-7.4 14-1.5 3.3-5.1 11-8 17-2.8 6-5.8 12.3-6.8 14-0.9 1.6-20.9 41.5-44.4 88.5-23.5 47-44.6 89.8-46.9 95-2.3 5.2-4.7 10.2-5.4 11-0.7 0.8-5.4 10.3-10.5 21-5.1 10.7-9.7 19.7-10.2 20-0.5 0.3-0.2 2.2 0.7 4.5 0.9 2.3 1.3 5.1 0.9 6.5-0.5 1.8 0 3.4 1.9 5.7 1.4 1.8 2.6 3.8 2.6 4.3 0 0.5 0.4 1 1 1 0.5 0 3.3 3.9 6 8.7 2.8 4.9 5.9 9.9 6.9 11.3 1.1 1.4 5.8 8.6 10.6 16 4.8 7.4 10.4 16 12.4 19 2 3 4.5 7.5 5.7 10 1.2 2.5 3.6 6.5 5.5 9 1.9 2.5 5.6 8.3 8.2 13 2.6 4.7 7 11.4 9.7 15 2.7 3.6 4.9 7.2 5 8 0 0.8 1.2 3.3 2.7 5.5 1.5 2.2 5.3 9.2 8.6 15.5 3.3 6.3 7.2 13.3 8.7 15.5 1.5 2.2 4 6.2 5.6 9 1.5 2.7 5 9.3 7.8 14.6 2.8 5.2 6.8 12.6 8.9 16.5 2.1 3.8 7 12.7 10.9 19.9 3.9 7.2 13.3 25.4 20.9 40.5 7.6 15.1 13.9 28.1 13.9 28.7 0 0.7 3.5 8.4 7.9 17 4.3 8.7 10.4 21.9 13.5 29.3 3.1 7.4 6.2 14.4 6.8 15.5 0.6 1.1 2.2 4 3.5 6.5 1.3 2.5 3.2 6.7 4.2 9.5 1 2.7 3.5 9.3 5.5 14.5 2.1 5.2 4.1 10.4 4.6 11.5 0.5 1.1 2.2 5.2 3.8 9 1.6 3.8 4.6 10.7 6.6 15.2 2 4.6 3.6 8.8 3.6 9.3 0 0.5 1.8 5.4 4.1 10.7 2.2 5.4 4.2 10.5 4.4 11.3 0.2 0.8 1.1 3.5 2 6 0.8 2.5 3.2 8.5 5.2 13.5 2 5 4 9.5 4.5 10 0.5 0.5 0.8 1.6 0.8 2.2 0 0.7 3.1 10.6 7 22 3.8 11.5 7.9 23.7 9 27.3 1.2 3.6 2.7 7.8 3.4 9.5 0.8 1.7 1.8 4.1 2.4 5.5 0.5 1.4 2.9 9 5.2 17 2.3 8 5.5 18.3 7.1 23 1.6 4.7 2.9 9.3 2.9 10.2 0 1 1.2 5.7 2.7 10.4 1.6 4.8 3.1 8.8 3.5 9 0.5 0.2 0.8 1.6 0.8 3.1 0 1.6 0.7 4.8 1.5 7.3 0.9 2.5 3.1 10.8 5 18.5 1.8 7.7 5.1 20.3 7.3 28 2.2 7.7 4.5 16.7 5.2 20 0.6 3.3 2 8.7 3 12 1 3.3 2.2 7.6 2.5 9.5 0.4 1.9 1 4 1.4 4.5 0.3 0.5 1.1 3.7 1.7 7 0.6 3.3 3 15 5.3 26 2.3 11 5.3 26.1 6.6 33.5 1.4 7.4 3.7 20.2 5.3 28.5 1.5 8.2 3.2 15.7 3.7 16.5 0.5 0.8 1.2 3.7 1.6 6.5 0.4 2.7 1.2 8.6 1.8 13 0.7 4.4 2.3 15.7 3.7 25 1.3 9.3 3.8 27.6 5.5 40.5 1.7 12.9 3.7 29.1 4.6 36 0.8 6.9 1.9 17 2.4 22.5 0.5 5.5 1.3 15.8 1.8 23 0.5 7.2 1.4 14.2 2 15.7 0.6 1.6 1.1 6.5 1.1 11 0 4.6 0.5 11 1 14.3 0.5 3.3 1.7 20.2 2.5 37.5 1 21.7 1.5 53.9 1.5 103.5 0 47.2-0.5 85.4-1.5 111-0.9 21.4-2 40.8-2.5 43-0.5 2.2-1 8.1-1 13 0 5-0.7 11.2-1.5 14-0.9 2.9-1.8 11.3-2.1 20-0.3 8.2-1.2 17.2-1.9 20-0.7 2.7-1.6 8.2-1.9 12-0.3 3.8-1.5 14.7-2.7 24-1.1 9.3-3.4 26.4-5.1 38-1.6 11.6-3.9 27.1-5 34.5-1.1 7.4-2.2 15.7-2.5 18.5-0.2 2.7-1 6.3-1.8 8-0.7 1.7-1.7 5.5-2 8.5-0.4 3-1.3 7.7-2 10.5-0.7 2.7-3.6 17.4-6.5 32.5-2.8 15.1-6 32.2-7.1 38-1.1 5.8-2.5 12.3-3 14.5-0.6 2.2-1.7 6-2.4 8.5-0.8 2.5-1.7 7-2.1 10-0.4 3-1.5 7.7-2.4 10.5-0.9 2.7-4.7 17.2-8.4 32-3.6 14.8-7 28.3-7.5 30-0.5 1.7-2.3 7.5-4 13-1.7 5.5-5.3 17.2-8 26-2.7 8.8-6.4 20.7-8 26.5-1.7 5.8-3.1 10.9-3.1 11.5 0 0.6-0.7 3.5-1.6 6.5-0.9 3-2 6.4-2.5 7.5-0.5 1.1-1.8 4.5-3 7.5-1.2 3-4.1 11.1-6.4 18-2.4 6.9-5.8 17-7.7 22.5-2 5.5-4.4 12.2-5.6 15-1.1 2.7-2.4 6.3-2.8 8-0.4 1.7-0.8 3.4-0.9 4-0.1 0.6-1.9 4.8-4.2 9.5-2.2 4.7-5 11.7-6.3 15.5-1.3 3.8-3.4 9.5-4.8 12.5-1.3 3-4.7 10.9-7.4 17.5-2.7 6.6-6 14.9-7.4 18.5-1.3 3.6-3.4 9.4-4.7 13-2.1 5.9-2.2 7.2-1.2 14.3 0.5 4.3 1.4 7.6 2 7.4 0.5-0.2 2.4-2.8 4.2-5.8 1.8-3 5.7-11.2 8.8-18.4 3-7.2 7.8-17.1 10.5-22 2.7-4.9 10.8-20.7 18.1-35 7.2-14.3 13.5-26.4 13.9-27 0.5-0.6 6.9-12.7 14.3-27 7.4-14.3 22.5-43.6 33.7-65 11.1-21.4 21-40.1 22-41.5 1-1.4 5.6-10.2 10.3-19.5 4.7-9.3 10.5-20.4 12.9-24.5 2.5-4.1 8-14.9 12.4-24 4.4-9.1 9.4-18.5 11.1-21 1.7-2.5 6.2-11 10-19 3.8-8 8.8-17.4 11-21 2.2-3.6 8.8-15.7 14.6-27 5.7-11.3 14.7-28.6 19.9-38.5 5.2-9.9 14.1-26.8 19.8-37.5 5.6-10.7 16.5-31.7 24.2-46.5 7.7-14.8 16.1-30.6 18.6-35 2.5-4.4 6.1-11 7.9-14.8 1.8-3.7 3.3-7.1 3.3-7.7 0-0.6 1.1-2.5 2.4-4.3 1.3-1.7 7.8-13.8 14.6-26.7 6.8-12.9 15.8-30 20-38 4.3-8 10.1-19.2 13-25 2.9-5.8 6-11.6 7-13 1-1.4 5.2-9.4 9.4-17.8 4.2-8.3 9.4-18.1 11.6-21.7 2.2-3.6 7.2-12.9 11.1-20.8 3.9-7.8 11.1-21.6 15.9-30.7 4.8-9.1 11-20.8 13.7-26 2.8-5.2 10.2-19.4 16.5-31.5 6.3-12.1 12.7-24 14.3-26.5 1.6-2.5 9.6-17.8 17.8-34 8.2-16.2 15.7-30.6 16.7-32 0.9-1.4 4.3-7.4 7.5-13.5 3.2-6.1 10.1-19.3 15.4-29.5 5.3-10.2 12.8-24.3 16.7-31.5 3.9-7.2 11.9-22 17.6-33 5.8-11 18.8-35.8 28.8-55 10.1-19.3 22.9-43.8 28.6-54.5 5.6-10.7 12.5-23.8 15.4-29 2.9-5.2 8.2-15.6 12-23 3.7-7.4 8.5-16.4 10.5-20 2.1-3.6 9.7-17.8 16.8-31.5 7.1-13.8 18-34.7 24.2-46.5 6.2-11.8 14.5-27.8 18.5-35.5 4.1-7.7 9.3-17.6 11.7-22 2.4-4.4 8.2-15.7 12.9-25 4.7-9.3 9.2-17.7 9.9-18.5 0.7-0.8 4.8-8.5 9-17 4.3-8.5 10.3-19.8 13.3-25 3.1-5.2 8.4-15.3 11.8-22.5 3.4-7.2 8.3-16.6 10.9-21 2.6-4.4 7.3-13.2 10.5-19.5 3.2-6.3 14-27 24-46 10.1-19 23.8-45.1 30.5-58 6.8-12.9 15.9-30.5 20.4-39 4.5-8.5 8.6-16 9.1-16.5 0.5-0.5 6-11.3 12.3-24 6.3-12.7 12.7-24.8 14.2-27 1.5-2.2 6.8-11.9 11.7-21.5 5-9.6 14.3-27.6 20.6-40 6.4-12.4 12.7-24.1 14-26 1.3-1.9 6.3-11.4 11.1-21 4.8-9.6 10.5-20.7 12.8-24.5 2.2-3.8 7.8-14.4 12.3-23.5 4.6-9.1 9.4-18.3 10.8-20.5 1.4-2.2 5.4-9.6 8.9-16.5 3.6-6.9 13.3-25.7 21.6-41.8 8.4-16.2 15.9-30.1 16.7-31 0.9-1 6.4-11.6 12.4-23.7 6-12.1 12.1-23.8 13.6-26 1.5-2.2 6.5-11.7 11.1-21 4.6-9.3 9.4-18.6 10.7-20.5 1.3-1.9 6.9-12.5 12.4-23.5 5.5-11 10.8-21.1 11.8-22.5 0.9-1.4 5.1-9 9.2-17 4.1-8 12.7-24.4 19-36.5 6.3-12.1 14.9-28.3 19-36 4.2-7.7 15.2-28.9 24.5-47 9.3-18.2 18.6-35.6 20.6-38.8 2-3.1 7.8-13.9 12.8-24 5-10 9.9-19.3 10.9-20.7 1-1.4 6.2-11.3 11.6-22 5.4-10.7 11.3-22 13.3-25 1.9-3 6.2-11.4 9.6-18.5 3.4-7.2 7.8-15.6 9.8-18.8 2-3.1 6-10.3 8.8-16 2.8-5.6 9.3-18.1 14.4-27.7 5.1-9.6 14.5-27.4 20.9-39.5 6.4-12.1 12.5-23.6 13.5-25.5 1.1-1.9 2.8-5.3 3.8-7.5 1.1-2.2 7.5-14.6 14.2-27.5 6.8-12.9 14.9-28.2 18.1-34 3.2-5.8 11.8-22.2 19.3-36.5 7.4-14.3 17.2-33 21.8-41.5 4.5-8.5 13.4-25.6 19.8-38 6.4-12.4 12.9-24.5 14.5-27 1.6-2.5 5.5-9.9 8.7-16.5 3.2-6.6 7.4-14.7 9.4-18 2-3.3 13.2-24.5 24.7-47 11.6-22.6 22.5-43.5 24.3-46.5 1.8-3 4.9-9.3 6.9-14 2-4.7 3.6-9.6 3.6-11 0.1-1.4-0.8-3.7-2-5.3l-2-2.7c-978.4 0.2-1265.4 0.6-1269 1z"/><path class="b" d="m2002.5 302.1c-1.7 0.5-14.7 1.3-29 1.6-22.4 0.6-26.3 1-28 2.4-1.9 1.7-2 2.7-1.6 33.6 0.3 17.5 0.4 38.8 0.3 47.3 0 8.5-0.4 70.8-0.7 138.5-0.3 67.6-0.2 139.4 0.3 159.5 0.5 20.1 1.3 37.3 1.8 38.3 0.5 1 1.6 2.1 2.4 2.4 0.8 0.3 33 1 71.5 1.4 38.5 0.5 97.4 1.3 131 1.9 33.6 0.5 72.3 1.7 86 2.5 13.8 0.9 36.5 2.7 50.5 4.1 14 1.4 32.7 3.4 41.5 4.5 8.8 1 17.3 2.3 19 2.9 1.7 0.5 9.1 1.6 16.5 2.5 7.4 0.8 25 3.5 39 6 14 2.4 35.5 6.5 47.8 9 12.2 2.5 34.5 7.4 49.5 10.9 14.9 3.5 28.8 6.7 30.7 7.1 1.9 0.3 7.1 1.7 11.5 3 4.4 1.3 14.8 4.2 23 6.5 8.3 2.4 23.1 6.6 33 9.5 9.9 3 31.3 9.8 47.5 15.3 16.2 5.5 36.9 12.9 46 16.5 9.1 3.6 22.3 8.7 29.5 11.2 7.2 2.6 18.4 7.2 25 10.1 6.6 3 12.3 5.4 12.8 5.4 0.4 0 7.3 2.9 15.5 6.5 8.1 3.6 21.1 9.5 29 13.2 7.9 3.8 30 14.5 49 24 19.1 9.5 45 22.9 57.7 29.7 12.7 6.9 25.8 14.2 29.3 16.3 3.5 2.1 8.9 5.3 12 7.2 3.1 1.8 10 5.8 15.2 8.9 5.2 3.1 13.8 8.3 19 11.7 5.2 3.4 11.1 7 13 8 1.9 0.9 14.3 8.9 27.5 17.6 13.2 8.7 26.2 17.6 28.8 19.6 2.7 2.1 6.2 4.7 7.8 5.8 1.7 1.1 6.3 4.1 10.2 6.7 4 2.6 9.5 6.6 12.4 9 2.8 2.4 8.7 6.8 13 9.8 4.3 3 13.2 9.8 19.8 15.1 6.6 5.2 15.2 11.7 19 14.4 3.8 2.6 10.4 7.9 14.5 11.6 4.1 3.8 10 8.7 13 11 3 2.3 8 6.4 11 9.3 3.1 2.8 8.5 7.3 12 10 3.6 2.7 9.9 8.1 14 12 4.2 3.9 10 9 13 11.3 3 2.3 32.3 31.1 65.1 64 32.7 32.9 64.9 66 71.5 73.5 6.5 7.5 15.5 17.8 19.9 22.9 4.4 5.1 10.8 12.9 14.1 17.3 3.4 4.5 9.2 11.6 13 15.8 3.8 4.2 10.1 12.1 13.9 17.4 3.8 5.4 10.2 13.6 14 18.3 3.9 4.7 10.4 13.3 14.5 19.1 4.1 5.8 10.2 14.1 13.6 18.5 3.3 4.4 6.8 9.5 7.7 11.2 0.9 1.8 3.6 5.4 6 8 2.3 2.7 5.6 7 7.2 9.8 1.6 2.7 9 14.2 16.6 25.5 7.5 11.3 14.7 22.7 16.1 25.5 1.4 2.7 4.6 7.7 7 11 2.5 3.3 5.8 8.2 7.3 11 1.5 2.7 5.5 9.7 8.8 15.5 3.3 5.8 6.8 11.4 7.8 12.5 1 1.1 6.3 10.5 12 21 5.6 10.5 11.3 20.8 12.7 23 1.4 2.2 5.7 10.3 9.5 18 3.8 7.7 10 19.4 13.8 26 3.7 6.6 8.8 16.5 11.3 22 2.4 5.5 7.4 16 11 23.2 3.6 7.3 6.6 13.5 6.6 13.8 0 0.3 1.5 3.8 3.4 7.7 1.9 4 7.2 16.1 11.9 26.8 4.7 10.7 10.2 23.5 12.2 28.5 2.1 5 5.3 13.3 7.2 18.5 1.9 5.2 4.1 10.6 4.8 12 0.7 1.4 3.4 8.3 6 15.5 2.6 7.2 6.9 19.3 9.5 27 2.7 7.7 7.3 21 10.3 29.5 3 8.5 7.6 22.7 10.3 31.5 2.6 8.8 6.1 21.2 7.9 27.5 1.8 6.3 4.6 16.2 6.3 22 1.7 5.8 5.4 19 8.1 29.5 2.8 10.5 5.8 22.4 6.6 26.5 0.9 4.1 2.6 11.5 3.9 16.5 1.3 5 4.7 20.5 7.5 34.5 2.8 14 6 31 7.1 37.7 1.1 6.8 2.4 13.3 2.9 14.5 0.5 1.3 2.5 13.5 4.6 27.3 2 13.7 4 26.8 4.5 29 0.6 2.2 2.1 14.6 3.5 27.5 1.4 12.9 3.4 34.3 4.5 47.5 1.1 13.2 2.4 33.7 3 45.5 0.6 11.8 1.5 27.3 2.1 34.5 0.5 7.2 1.4 24 2 37.5 0.6 13.9 0.7 41.8 0.4 64.5-0.4 22-1.1 42.2-1.5 45-0.5 2.7-1.6 16.9-2.5 31.5-0.9 14.6-2.2 33.9-3 43-0.9 9.1-3.1 29.3-5 45-1.9 15.7-5 39.1-6.9 52-2 12.9-4.2 26.2-5.1 29.5-0.8 3.3-3.1 15.4-5 27-2 11.6-6.3 33.2-9.6 48-3.3 14.8-8.4 36.7-11.4 48.5-3 11.8-7.2 27.8-9.3 35.5-2.2 7.7-5.6 19.8-7.7 27-2 7.2-7.3 24.2-11.6 38-4.4 13.7-8.6 26.3-9.4 28-0.8 1.7-5.1 13.3-9.5 26-4.5 12.7-9.2 25.9-10.6 29.5-1.5 3.6-5.2 13.2-8.4 21.5-3.1 8.2-7.4 18.7-9.4 23.2-2 4.6-3.6 8.9-3.6 9.5 0 0.7-2.9 7.4-6.4 14.8-3.5 7.4-9.2 20-12.7 28-3.5 8-17.9 37.7-32.1 66-14.1 28.3-30.4 60.3-36.2 71-5.8 10.7-15.7 29.7-22.1 42.2-6.3 12.6-13 25.2-14.9 28-1.8 2.9-10.8 19.9-20 37.8-9.2 17.9-18.4 35.4-20.4 39-2.1 3.6-12.1 22.5-22.2 42-10 19.5-24 46.1-31 59-7 12.9-19.4 36.6-27.5 52.5-8.2 15.9-17.2 33.1-20 38-2.8 4.9-13.2 24.7-23 44-9.8 19.2-19.7 38.2-22 42-2.4 3.8-8.1 14.8-12.9 24.2-4.7 9.5-10.1 19.7-11.9 22.5-1.9 2.9-10.3 18.8-18.7 35.3-8.4 16.5-18.1 34.9-21.5 41-3.4 6.1-9.7 18-14.1 26.5-4.3 8.5-10.1 19.8-13 25-2.8 5.2-13.8 26.2-24.4 46.5-10.6 20.3-22 41.9-25.3 48-3.4 6.1-10.6 19.8-16.2 30.5-5.6 10.7-18.2 35-28 54-9.7 19-21 40.3-25 47.5-4 7.2-10.4 19.3-14.3 27-3.8 7.7-12.1 23.7-18.4 35.5-6.3 11.8-12.8 23.7-14.5 26.5-1.6 2.7-6.6 12.6-11.2 22-4.5 9.4-10.8 21.5-14 27-3.2 5.5-11.6 21.2-18.6 35-7 13.7-16.7 32.2-21.5 41-4.8 8.8-12.6 23.4-17.3 32.5-4.6 9.1-12.9 25.1-18.4 35.5-5.5 10.4-13.6 25.7-18 34-4.4 8.2-14.4 27.4-22.3 42.5-7.8 15.1-19.5 37.4-26 49.5-6.4 12.1-17.6 33.2-24.8 47-7.1 13.7-19.4 37.4-27.2 52.5-7.8 15.1-14.8 28.2-15.5 29-0.7 0.8-4.9 8.5-9.3 17-4.4 8.5-8.7 16.9-9.6 18.5-0.9 1.6-1.6 3.3-1.6 3.7 0 0.5-1.2 2.5-2.6 4.5-1.4 2.1-5.5 9.7-9.1 16.8-3.6 7.1-9.2 17.7-12.3 23.5-3.2 5.8-9.4 17.5-13.7 26-4.4 8.5-13.7 26.5-20.8 40-7 13.5-14.8 28.1-17.3 32.5-2.5 4.4-5 9.1-5.6 10.5-0.6 1.3-2.8 5.8-5 10-2.1 4.1-11.5 22.1-20.9 40-9.3 17.9-18.6 35.4-20.7 39-2 3.6-10.6 20-19 36.5-8.4 16.5-17.2 33.1-19.5 37-2.4 3.9-7.5 13.5-11.5 21.5-4 8-8.7 16.7-10.5 19.5-1.7 2.7-6.8 12.2-11.3 21-4.4 8.8-10.7 20.3-13.8 25.5-3.2 5.2-7.5 13.4-9.6 18.2l-3.8 8.8c2.4 7.4 5.7 14.4 8.9 20.5 3.2 6.1 9.2 17.3 13.3 25 4.2 7.7 9.5 17.4 11.8 21.5 2.4 4.1 8.7 15.8 14 26 5.3 10.2 11.1 21 12.9 24 1.9 3 6.3 11.4 9.9 18.5 3.5 7.1 8.7 17.1 11.5 22 2.8 4.9 9.8 18 15.5 29 5.8 11 14.4 27.4 19.2 36.5 4.7 9.1 11.6 21.9 15.2 28.5 3.6 6.6 12.9 23.9 20.6 38.5 7.7 14.6 19.7 37.5 26.7 51 7 13.5 19.1 36.6 26.8 51.5 7.7 14.9 17.2 32.4 21 39 3.9 6.6 8 13 9.1 14.3 1.2 1.3 3.2 2.2 4.8 2.2 1.5 0 3.4-0.7 4.2-1.5 0.9-0.8 1.9-2.5 2.2-3.8 0.4-1.2 2.6-5.3 4.9-9.2 2.3-3.9 6.5-11.6 9.4-17.3 2.8-5.6 6.9-13.1 9.1-16.7 2.2-3.6 6.6-11.8 9.9-18.3 3.2-6.4 8.2-16 11.1-21.2 2.9-5.2 9.6-17.8 15-28 5.4-10.2 17.5-33.4 27-51.5 9.5-18.1 20.5-39.1 24.3-46.5 3.9-7.4 8-14.9 9.1-16.5 1.2-1.6 6.6-11.8 12.2-22.5 5.6-10.7 15.2-29.2 21.3-41 6.1-11.8 11.4-22.4 11.8-23.5 0.3-1.1 1.5-3.3 2.7-5 1.1-1.6 6-10.4 10.7-19.5 4.7-9.1 27.1-51.8 49.9-95 22.7-43.2 44.8-85.1 48.9-93.1 4.2-8.1 8.4-15.5 9.3-16.5 0.9-1.1 5.3-9.5 9.8-18.9 4.5-9.4 12-24.2 16.7-33 4.7-8.8 11.9-21.9 15.9-29 4-7.1 9.5-17.7 12.3-23.5 2.7-5.8 6.8-13.9 9.2-18 2.3-4.1 8.5-15.6 13.7-25.5 5.2-9.9 15.2-29 22.2-42.5 7-13.5 19-36.4 26.7-51 7.7-14.6 19.3-36.6 25.8-49 6.5-12.4 12.1-22.9 12.5-23.5 0.4-0.6 6.5-12.3 13.5-26 7-13.8 13.1-25.4 13.6-26 0.4-0.6 5.7-10.4 11.7-22 6-11.6 12.9-24.8 15.4-29.5 2.5-4.7 11.2-21.3 19.4-37 8.2-15.7 16.3-31 18.2-34 1.8-3 7.4-13.8 12.3-24 5-10.2 10-19.9 11.2-21.5 1.2-1.6 6.3-10.9 11.3-20.5 5-9.6 14.1-26.9 20.1-38.5 6.1-11.6 15.7-29.8 21.3-40.5 5.6-10.7 15.6-29.9 22.2-42.5 6.6-12.6 14.8-28.2 18.3-34.5 3.4-6.3 9.6-18 13.7-26 4.2-8 14.2-27.3 22.3-43 8.1-15.7 15.3-29.1 15.9-29.9 0.6-0.8 6-10.9 12-22.5 6-11.6 15.2-29.5 20.5-39.7 5.3-10.2 10.1-19.2 10.8-20 0.6-0.8 4.6-8.4 8.8-16.9 4.3-8.5 9.9-19.1 12.5-23.5 2.6-4.4 9.9-18.1 16.2-30.5 6.4-12.4 16-30.8 21.3-41 5.4-10.2 12.7-24.1 16.3-31 3.5-6.9 9.2-17.7 12.7-24 3.4-6.3 9.9-18.7 14.5-27.5 4.5-8.8 12.6-24.3 18-34.5 5.4-10.2 14.2-26.8 19.5-37 5.4-10.2 15.3-29.1 22-42 6.7-12.9 16.2-30.9 21-40 4.9-9.1 13.2-24.8 18.5-35 5.4-10.2 15-28.6 21.5-41 6.5-12.4 16.5-31.7 22.4-43 5.8-11.3 11.8-22.3 13.2-24.5 1.4-2.2 9-16.6 16.9-32 7.9-15.4 16.1-31.2 18.3-35 2.2-3.8 9.1-16.9 15.4-29 6.3-12.1 16.2-30.8 22-41.5 5.8-10.7 16-29.4 22.6-41.5 6.6-12.1 15.2-27.8 19.2-35 4.1-7.2 16.3-30.3 27.3-51.5 11-21.2 22.7-43.7 26-50 3.3-6.3 7.7-15.2 9.6-19.8l3.6-8.2c-2.6-19.2-2.5-19.7-0.3-26 1.3-3.6 3.4-9.4 4.7-13 1.4-3.6 4.7-11.9 7.4-18.5 2.7-6.6 6.1-14.5 7.4-17.5 1.4-3 3.5-8.7 4.8-12.5 1.3-3.8 4.1-10.8 6.3-15.5 2.3-4.7 4.1-8.9 4.2-9.5 0.1-0.6 0.5-2.3 0.9-4 0.4-1.7 1.7-5.3 2.8-8 1.2-2.8 3.6-9.5 5.6-15 1.9-5.5 5.3-15.6 7.7-22.5 2.3-6.9 5.2-15 6.4-18 1.2-3 2.5-6.4 3-7.5 0.5-1.1 1.6-4.5 2.5-7.5 0.9-3 1.6-5.9 1.6-6.5 0-0.6 1.4-5.7 3.1-11.5 1.6-5.8 5.3-17.7 8-26.5 2.7-8.8 6.3-20.5 8-26 1.7-5.5 3.5-11.3 4-13 0.5-1.7 3.9-15.2 7.5-30 3.7-14.8 7.5-29.3 8.4-32 0.9-2.8 2-7.5 2.4-10.5 0.4-3 1.3-7.5 2.1-10 0.7-2.5 1.8-6.3 2.4-8.5 0.5-2.2 1.9-8.7 3-14.5 1.1-5.8 4.3-22.9 7.1-38 2.9-15.1 5.8-29.8 6.5-32.5 0.7-2.8 1.6-7.5 2-10.5 0.3-3 1.3-6.8 2-8.5 0.8-1.7 1.6-5.3 1.8-8 0.3-2.8 1.4-11.1 2.5-18.5 1.1-7.4 3.4-22.9 5-34.5 1.7-11.6 4-28.7 5.1-38 1.2-9.3 2.4-20.2 2.7-24 0.3-3.8 1.2-9.3 1.9-12 0.7-2.8 1.6-11.8 1.9-20 0.3-8.7 1.2-17.1 2.1-20 0.8-2.8 1.5-9 1.5-14 0-4.9 0.5-10.8 1-13 0.5-2.2 1.6-21.6 2.5-43 1-25.6 1.5-63.8 1.5-111 0-49.6-0.5-81.8-1.5-103.5-0.8-17.3-2-34.2-2.5-37.5-0.5-3.3-1-9.7-1-14.3 0-4.5-0.5-9.4-1.1-11-0.6-1.5-1.5-8.5-2-15.7-0.5-7.2-1.3-17.5-1.8-23-0.5-5.5-1.6-15.6-2.4-22.5-0.9-6.9-2.9-23.1-4.6-36-1.7-12.9-4.2-31.2-5.5-40.5-1.4-9.3-3-20.6-3.7-25-0.6-4.4-1.4-10.3-1.8-13-0.4-2.8-1.1-5.7-1.6-6.5-0.5-0.8-2.2-8.3-3.7-16.5-1.6-8.3-3.9-21.1-5.3-28.5-1.3-7.4-4.3-22.5-6.6-33.5-2.3-11-4.7-22.7-5.3-26-0.6-3.3-1.4-6.5-1.7-7-0.4-0.5-1-2.6-1.4-4.5-0.3-1.9-1.5-6.2-2.5-9.5-1-3.3-2.4-8.7-3-12-0.7-3.3-3-12.3-5.2-20-2.2-7.7-5.5-20.3-7.3-28-1.9-7.7-4.1-16-5-18.5-0.8-2.5-1.5-5.7-1.5-7.3 0-1.5-0.3-2.9-0.7-3.1-0.5-0.2-2-4.2-3.5-9-1.6-4.7-2.8-9.4-2.8-10.4 0-0.9-1.3-5.5-2.9-10.2-1.6-4.7-4.8-15-7.1-23-2.3-8-4.7-15.6-5.2-17-0.6-1.4-1.6-3.8-2.4-5.5-0.7-1.7-2.2-5.9-3.4-9.5-1.1-3.6-5.2-15.8-9-27.3-3.9-11.4-7-21.3-7-22 0-0.6-0.3-1.7-0.8-2.2-0.5-0.5-2.5-5-4.5-10-2-5-4.4-11-5.2-13.5-0.9-2.5-1.8-5.2-2-6-0.2-0.8-2.2-5.9-4.4-11.3-2.3-5.3-4.1-10.2-4.1-10.7 0-0.5-1.6-4.7-3.6-9.3-2-4.5-5-11.4-6.6-15.2-1.6-3.8-3.3-7.9-3.8-9-0.5-1.1-2.5-6.3-4.6-11.5-2-5.2-4.5-11.8-5.5-14.5-1-2.8-2.9-7-4.2-9.5-1.3-2.5-2.9-5.4-3.5-6.5-0.6-1.1-3.7-8.1-6.8-15.5-3.1-7.4-9.2-20.6-13.5-29.3-4.4-8.6-7.9-16.3-7.9-17 0-0.6-6.3-13.6-13.9-28.7-7.6-15.1-17-33.3-20.9-40.5-3.9-7.2-8.8-16.1-10.9-19.9-2.1-3.9-6.1-11.3-8.9-16.5-2.8-5.3-6.3-11.9-7.8-14.6-1.6-2.8-4.1-6.8-5.6-9-1.5-2.2-5.4-9.2-8.7-15.5-3.3-6.3-7.1-13.3-8.6-15.5-1.5-2.2-2.7-4.7-2.7-5.5-0.1-0.8-2.3-4.4-5-8-2.7-3.6-7.1-10.3-9.7-15-2.6-4.7-6.3-10.5-8.2-13-1.9-2.5-4.3-6.5-5.5-9-1.2-2.5-3.7-7-5.7-10-2-3-7.6-11.6-12.4-19-4.8-7.4-9.5-14.6-10.6-16-1-1.4-4.1-6.4-6.9-11.3-2.7-4.8-5.4-8.7-6-8.7-0.6 0-1-0.5-1-1 0-0.5-1.2-2.5-2.6-4.3-1.8-2.3-2.4-3.9-1.9-5.7 0.3-1.4 0.1-3.8-0.5-5.5-0.6-1.7-1.9-3.7-3-4.5-1-0.8-6-7.1-11.2-13.9-5.1-6.8-11.6-15.6-14.4-19.5-2.7-3.9-10.1-13.9-16.4-22.1-6.2-8.3-13.1-17.3-15.2-20-2.2-2.8-5.5-7-7.4-9.5-1.9-2.5-6.7-8.8-10.6-14-3.9-5.2-9.9-12.7-13.3-16.5-3.4-3.8-7.9-9.5-10-12.5-2.1-3-11.8-14.7-21.4-26-9.6-11.3-24.7-28.5-33.6-38.4-8.8-9.8-20.5-22.9-26-29.1-5.5-6.2-16.3-17.9-24-26-7.7-8.1-23.5-24.3-35-35.9-11.6-11.6-30.5-29.9-41.9-40.6-11.5-10.7-25.7-24.1-31.5-29.6-5.8-5.6-11.4-10.5-12.3-11-0.9-0.5-9-7.5-18-15.5-9-8-24.1-21.2-33.6-29.2-9.4-8.1-17.6-14.7-18.2-14.7-0.6 0-5.2-3.7-10.3-8.3-5-4.6-11.4-9.8-14.2-11.7-2.8-1.8-7.6-5.6-10.9-8.4-3.2-2.8-9.8-8-14.7-11.6-4.8-3.6-16.1-12-25.1-18.7-9-6.8-19-14.3-22.3-16.8-3.3-2.4-8.7-6.4-12-8.9-3.3-2.5-6.4-4.6-7-4.6-0.6 0-6.4-4-13-8.9-6.6-4.9-22.6-15.8-35.5-24.3-12.9-8.4-25.8-16.7-28.5-18.2-2.7-1.6-7.5-4.6-10.5-6.6-3-2.1-10.4-6.9-16.5-10.7-6.1-3.9-13.5-8.3-16.5-9.8-3-1.5-6.6-3.7-8-5-1.4-1.2-6.6-4.5-11.5-7.2-4.9-2.8-16.2-9.2-25-14.3-8.8-5.1-20.4-11.4-25.8-14.1-5.3-2.7-12.5-6.6-15.9-8.7-3.5-2.2-18-10-32.3-17.4-14.3-7.4-33.4-17-42.5-21.3-9.1-4.3-22.1-10.6-29-14-6.9-3.4-15.7-7.4-19.5-9-3.8-1.5-14-6-22.5-10-8.5-4-25.2-11.2-37-16-11.8-4.8-23.5-9.8-26-11.1-2.5-1.3-11.5-4.9-20-8-8.5-3-22.9-8.4-32-11.9-9.1-3.5-27.8-10.3-41.5-15.1-13.8-4.7-32.7-11.1-42-14.1-9.3-3-30.7-9.5-47.5-14.5-16.8-5-31.6-9.3-33-9.5-1.4-0.3-7.7-2-14-3.8-6.3-1.8-21.2-5.6-33-8.5-11.8-2.8-22.6-5.6-24-6.1-1.4-0.6-7.7-2.1-14-3.4-6.3-1.3-16.4-3.6-22.5-5-6.1-1.5-17.8-3.9-26-5.5-8.3-1.6-20.4-3.8-27-5-6.6-1.1-16.5-2.9-22-4-5.5-1.1-17.4-3.1-26.5-4.5-9.1-1.4-19.4-3.2-23-4.1-3.6-0.8-13.7-2.3-22.5-3.5-8.8-1.1-27-3.3-40.5-5-13.5-1.6-31.8-3.6-40.8-4.4-8.9-0.8-16.8-1.8-17.5-2.1-0.6-0.4-14-1.5-29.7-2.5-15.7-1-42.9-2.3-60.5-2.9-17.6-0.6-42.6-1.6-55.5-2.2-12.9-0.7-57-1.3-98-1.4-45-0.2-75.7 0.1-77.5 0.7zm-55.2 720.9c-1.1 0.5-2.8 1.9-3.7 3.2-1.4 2.1-1.6 21.6-1.6 197.3 0 117.9 0.3 198 0.9 202.5 0.5 4.1 1.5 8.8 2.1 10.5 0.6 1.7 2.2 4.3 3.5 6 1.3 1.7 2.1 3.3 1.7 3.7-0.4 0.4 37.1 0.7 83.3 0.7 46.2 0 92.6 0.3 103 0.6 10.4 0.4 21.9 1 25.5 1.5 3.6 0.5 14.4 1.4 24 2 9.6 0.5 25.2 1.7 34.5 2.5 9.3 0.9 22.6 2.2 29.5 3.1 6.9 0.8 21.7 2.8 33 4.5 11.3 1.6 23.9 3.8 28 4.9 4.1 1 15.8 3.7 26 6 10.2 2.3 25.9 6.2 35 8.7 9.1 2.5 29.6 8.9 45.5 14.3 15.9 5.4 33.3 11.5 38.5 13.5 5.2 2.1 11.1 4.6 13 5.5 1.9 1 6.4 2.9 10 4.3 3.6 1.4 11.7 4.7 18 7.5 6.3 2.7 14.7 6.7 18.5 8.9 3.8 2.1 9.3 4.8 12 6 2.8 1.2 12.4 5.9 21.5 10.5 9.1 4.7 18.3 9.7 20.5 11.2 2.2 1.5 7.8 4.7 12.5 7.1 4.7 2.3 13.2 7.3 19 11.1 5.8 3.7 16.1 10.2 23 14.4 6.9 4.1 16.5 10.4 21.4 14 4.8 3.6 16.1 11.9 24.9 18.5 8.9 6.6 18.8 14.1 22.2 16.6 3.3 2.5 8.9 7.2 12.5 10.5 3.6 3.3 7.7 6.7 9.3 7.7 1.5 0.9 10.9 9 20.9 17.9 10.1 9 27.5 25.5 38.8 36.8 11.3 11.3 26.3 27 33.5 34.9 7.2 8 14.3 16.3 16 18.5 1.6 2.3 5.9 7.5 9.5 11.6 3.7 4.1 9.1 10.9 12.1 15 2.9 4.1 8.3 11.3 11.9 16 3.7 4.7 10.4 13.9 15 20.5 4.6 6.6 9.5 13.3 10.9 15 1.5 1.7 4.6 6.4 7 10.5 2.4 4.1 7.6 12.5 11.6 18.5 3.9 6 9.8 15.5 13 21 3.2 5.5 8.3 14 11.4 19 3 5 11.2 20 18.1 33.5 6.9 13.5 15.2 30.3 18.4 37.5 3.2 7.2 8.6 18.8 11.9 26 3.3 7.2 9.8 23.3 14.5 36 4.6 12.7 10.1 27.9 12.2 34 2.2 6.1 7.3 23.2 11.4 38 4.2 14.8 8.2 29 9 31.5 0.8 2.5 3.9 17.1 7 32.5 3 15.4 6.2 33.2 7.1 39.5 0.9 6.3 2 12.8 2.5 14.5 0.5 1.7 1.8 10.7 2.9 20 1.1 9.3 2.5 24.2 3.1 33 0.6 8.8 1.5 20.5 2 26 0.5 5.5 1.2 24.4 1.5 42 0.3 17.6 0.1 43.5-0.4 57.5-0.6 14-1.5 30.4-2.1 36.5-0.5 6.1-2.1 20.2-3.5 31.5-1.3 11.3-3.1 23.4-3.9 27-0.8 3.6-2.9 15.1-4.6 25.5-1.7 10.4-4.2 23.9-5.6 30-1.4 6.1-4.6 19.3-7.1 29.5-2.5 10.2-7.8 29.1-11.9 42-4 12.9-12.2 37-18.2 53.5-6 16.5-13.2 34.7-15.9 40.5-2.7 5.8-5.5 12.3-6.2 14.5-0.8 2.2-8.5 18.8-17.3 37-8.8 18.2-16.4 33.4-16.8 34-0.4 0.6-7.2 13.4-15.1 28.5-7.8 15.1-18 34.9-22.6 44-4.7 9.1-8.8 16.9-9.3 17.5-0.4 0.6-8.5 15.6-17.8 33.5-9.3 17.9-24.6 47.1-34 65-9.3 17.9-19.8 37.7-23.3 44-3.4 6.3-15.6 29.7-27.1 52-11.5 22.3-21.5 41.1-22.1 41.9-0.7 0.8-6.2 11.1-12.3 23-6.1 11.9-16 31.1-22 42.7-6 11.5-11.4 21.7-12.1 22.5-0.7 0.8-6.6 11.7-13.1 24.4-6.6 12.7-16.1 30.9-21.2 40.5-5.1 9.6-14.1 26.7-20 38-5.9 11.3-15.7 29.9-21.7 41.5-6.1 11.6-17.7 33.8-26 49.5-8.2 15.7-23.2 44.2-33.3 63.5-10 19.2-21.5 41.1-25.5 48.5-4 7.4-12.2 22.7-18.1 34-5.9 11.3-16 30.6-22.4 43-6.4 12.4-16.2 31.1-21.7 41.5-5.5 10.4-15.5 29.6-22.3 42.5-6.8 12.9-17.3 33.2-23.5 45-6.2 11.8-12.9 24.4-14.9 28-2.1 3.6-7 12.8-10.8 20.5-3.8 7.7-8.5 16.5-10.3 19.5-1.9 3-6.5 12-10.3 20-3.9 8-10 19.9-13.7 26.5-3.7 6.6-9.2 16.9-12.3 23-3 6.1-6.5 12.6-7.7 14.5-1.2 1.9-7.3 13.6-13.5 26-6.3 12.4-12.3 24.1-13.5 26-1.2 1.9-9.3 17.2-18 34-8.7 16.8-17.2 33-19 36-1.8 3-3.6 6.6-4 8-0.5 1.4-2.5 5.3-4.7 8.7-2.1 3.5-5.6 10-7.9 14.5-2.3 4.6-11.1 21.6-19.6 37.8-8.6 16.2-17.9 33.6-20.8 38.5-2.9 4.9-7.3 13.3-9.8 18.5-2.6 5.2-6.3 12.2-8.3 15.5-2 3.3-8.4 15.2-14.2 26.5-5.9 11.3-13 24.6-15.9 29.5-2.9 4.9-7.9 14.6-11 21.5-4.6 10-5.7 13.5-5.8 17.7 0 4.7 1 7.2 8.9 22.5 4.9 9.5 10.4 19.5 12.1 22.3 1.8 2.7 5.8 10.2 9 16.5 3.1 6.3 7.4 14.4 9.5 18 2.1 3.6 9.3 16.9 16.1 29.5 6.7 12.6 16.7 31.8 22.2 42.5 5.5 10.7 11.4 22 13.2 25 1.8 3 5.9 10.7 9 17 3.2 6.3 8.1 15.6 11 20.5 2.9 4.9 12.4 22.7 21.3 39.5 8.8 16.8 18.3 35.2 21.2 41 2.9 5.8 9.2 17.7 14 26.5 4.8 8.8 15.5 29.1 23.7 45 8.2 15.9 20.1 38.7 26.4 50.5 6.8 12.7 13 23.1 15.4 25.7 2.2 2.3 4.8 4.3 5.8 4.3 0.9 0 2.6-0.4 3.7-1 1.1-0.6 4.5-6.1 7.6-12.3 3.1-6.1 6.6-12.6 7.8-14.2 1.3-1.6 5.9-10 10.3-18.5 4.4-8.5 12.7-24.5 18.5-35.5 5.8-11 15.3-29.2 21.2-40.5 6-11.3 13.6-25.7 17.1-32 3.4-6.3 9.6-18.3 13.8-26.5 4.1-8.3 9.2-17.9 11.3-21.5 2-3.6 7.6-13.9 12.4-23 4.8-9.1 13.7-26.2 19.9-38 6.2-11.8 12.1-22.9 13.1-24.5 1-1.6 7.1-13.1 13.6-25.5 6.5-12.4 15.9-30.6 20.9-40.5 5-9.9 10.9-21.1 13.1-25 2.3-3.9 8.5-15.6 13.9-26 5.4-10.4 13-24.9 16.8-32 3.9-7.1 12.3-23.1 18.7-35.5 6.4-12.4 17-32.6 23.5-45 6.5-12.4 15.6-29.7 20.3-38.5 4.7-8.8 12.4-23.2 17-32 4.7-8.8 14.4-27.5 21.7-41.5 7.3-14 18-34.5 23.7-45.5 5.8-11 15.1-28.8 20.7-39.5 5.6-10.7 10.6-19.9 11.1-20.5 0.5-0.6 5-9.3 10.1-19.5 5-10.2 10.3-20.3 11.7-22.5 1.4-2.2 7.8-14.1 14.3-26.5 6.4-12.4 18.2-35.1 26.2-50.5 8-15.4 18.8-35.9 24-45.5 5.2-9.6 14.4-26.9 20.3-38.5 5.9-11.6 11.9-22.8 13.3-25 1.3-2.2 8.5-15.7 16-30 7.4-14.3 17.5-33.7 22.4-43 4.9-9.3 14.1-26.8 20.3-38.8 6.3-11.9 16.5-31.5 22.8-43.5 6.2-11.9 15.5-29.6 20.6-39.2 5.1-9.6 14.7-28.1 21.5-41 6.7-12.9 14.2-27.1 16.7-31.5 2.5-4.4 10-18.8 16.8-32 6.8-13.2 16-30.8 20.5-39 4.5-8.3 13.2-24.4 19.2-36 6.1-11.6 16.3-31.3 22.8-44 6.5-12.7 13-24.8 14.4-27 1.4-2.2 8.2-15 15.2-28.5 7-13.5 16.6-31.9 21.4-41 4.8-9.1 13.4-25.3 19-36 5.6-10.7 16-30.8 23.2-44.5 7.1-13.8 15-28.6 17.5-33 2.5-4.4 6.9-12.7 9.8-18.5 2.9-5.8 7.4-14.3 10-19 2.6-4.7 13-24.5 23.1-44 10.2-19.5 23.5-45.8 29.6-58.5 6.1-12.7 12.4-26.2 13.8-30 1.5-3.8 3.5-8.1 4.5-9.5 1-1.4 3.7-7 6-12.5 2.3-5.5 6.4-15.6 9.2-22.5 2.7-6.9 6.5-16.1 8.3-20.5 1.9-4.4 7.5-19.7 12.6-34 5-14.3 9.7-27.1 10.4-28.5 0.7-1.4 3.8-10.6 6.8-20.5 3-9.9 7.6-25.2 10.1-34 2.6-8.8 5.3-18.3 6.1-21 0.8-2.8 2.1-7.3 2.9-10 0.9-2.8 3.6-13.1 6.1-23 2.5-9.9 6.1-25.4 8-34.5 1.8-9.1 5.1-25.3 7.3-36 2.2-10.7 4.7-23.6 5.5-28.5 0.8-4.9 2.6-15.5 4-23.5 1.4-8 3.5-21.9 4.6-31 1.1-9.1 3.1-27.5 4.5-41 1.4-13.5 3.1-31.7 3.7-40.5 0.8-10.3 1.2-43.2 1.2-92.5-0.1-67.9-0.3-79.9-2.2-107-1.2-16.8-3.1-39.1-4.2-49.5-1.1-10.4-3.5-30-5.4-43.5-2-13.5-4-25.8-4.5-27.5-0.5-1.7-1.8-8.8-3-16-1.2-7.2-2.5-14.3-3-16-0.6-1.7-2.6-11.6-4.5-22-1.9-10.4-6.6-31.4-10.4-46.5-3.8-15.1-8.6-32.6-10.5-38.8-2-6.1-3.6-11.8-3.6-12.5 0-0.6-3.3-12-7.4-25.2-4.1-13.2-11.2-34.8-15.9-48-4.6-13.2-10.1-28.2-12.1-33.3-2-5-3.6-9.8-3.6-10.5 0-0.6-1-3.2-2.3-5.7-1.3-2.5-4.5-9.7-7-16-2.5-6.3-6.7-16.7-9.4-23-2.8-6.3-7.2-16.2-9.9-21.9-2.7-5.8-13.6-27.8-24.2-49-10.6-21.2-24-47.1-29.8-57.6-5.8-10.5-12.3-21.3-14.4-24-2.1-2.8-5-7.5-6.5-10.5-1.5-3-6-10.7-10-17-3.9-6.3-12-18.7-17.9-27.5-5.8-8.8-13.1-19.6-16.1-24-3-4.4-8.1-11.8-11.2-16.4-3.2-4.7-9.8-13.7-14.7-20-4.9-6.4-10-13.4-11.4-15.6-1.4-2.2-5.5-7.6-9.2-12-3.7-4.4-8.1-10-9.8-12.5-1.6-2.5-5.8-7.7-9.2-11.5-3.4-3.8-9.3-11-13-16-3.8-5-13.7-16.7-22.1-26-8.5-9.3-36.7-38.4-62.9-64.5-26.1-26.1-56.5-55.4-67.4-65-10.9-9.6-21.2-18.4-23-19.5-1.7-1-6.5-5-10.6-8.8-4.1-3.8-9.1-7.7-11-8.7-1.9-1-6.9-4.7-11-8.2-4.1-3.6-12.7-10.2-19-14.8-6.3-4.6-17.3-12.6-24.5-17.8-7.2-5.2-14.3-10.1-16-10.9-1.7-0.9-6.6-4.4-11-7.8-4.4-3.4-12.3-8.8-17.5-12-5.2-3.2-14-8.8-19.5-12.5-5.5-3.7-14.7-9.3-20.5-12.5-5.8-3.2-14.1-8.2-18.5-11-4.4-2.9-15.9-9.5-25.5-14.8-9.6-5.2-25.2-13.5-34.5-18.4-9.3-4.9-18.6-9.5-20.5-10.2-1.9-0.7-4.8-2.2-6.5-3.4-1.7-1.2-7.7-4.3-13.5-6.8-5.8-2.6-14.3-6.3-19-8.3-4.7-2-11.5-5.2-15.2-7.1-3.8-1.9-11.2-5.2-16.5-7.4-5.4-2.1-20.6-8.2-33.8-13.6-13.2-5.3-35.7-13.7-50-18.6-14.3-4.9-31.2-10.5-37.5-12.4-6.3-1.9-23.2-6.9-37.5-11.1-14.3-4.1-33.2-9.3-42-11.4-8.8-2.1-25.2-5.9-36.5-8.4-11.3-2.5-30.2-6.1-42-8.1-11.8-2-21.7-3.8-22-4-0.3-0.2-5.2-1.1-11-2-5.8-0.9-18.2-2.5-27.5-3.6-9.3-1.1-18.6-2.4-20.5-2.9-1.9-0.5-9.8-1.6-17.5-2.4-7.7-0.9-22.8-2.3-33.5-3.2-10.7-0.8-39.5-1.9-64-2.4-24.5-0.5-84.8-0.9-134-0.9-49.4 0-90.5 0.4-91.7 0.9z"/></svg>